{"title":"Barbara playboy full","uid":12418453,"size":116636930,"categoryP":"video","categoryS":"music_videos","magnet":"?xt=urn:btih:9d0a115d0fd491585936095d0b54cacd63716561&amp;dn=Barbara+playboy+full&amp;tr=udp%3A%2F%2Ftracker.openbittorrent.com%3A80&amp;tr=udp%3A%2F%2Fopen.demonii.com%3A1337&amp;tr=udp%3A%2F%2Ftracker.coppersurfer.tk%3A6969&amp;tr=udp%3A%2F%2Fexodus.desync.com%3A6969","seeders":0,"leechers":0,"uploader":"elizeual","files":1,"time":1442263418,"description":"General\nComplete name                     : Barbara Borges.avi\nFormat                                   : AVI\nFormat/Info                              : Audio Video Interleave\nFile size                                : 111 MiB\nDuration                                 : 12mn 34s\nOverall bit rate                         : 1 236 Kbps\nWriting application                      : Lavf55.34.101\n\nVideo\nID                                       : 0\nFormat                                   : MPEG-4 Visual\nFormat profile                           : Simple@L1\nFormat settings, BVOP                    : No\nFormat settings, QPel                    : No\nFormat settings, GMC                     : No warppoints\nFormat settings, Matrix                  : Default (H.263)\nCodec ID                                 : MP4V\nCodec ID/Info                            : Apple QuickTime MPEG-4 native\nDuration                                 : 12mn 34s\nBit rate                                 : 1 096 Kbps\nWidth                                    : 316 pixels\nHeight                                   : 238 pixels\nDisplay aspect ratio                     : 4:3\nFrame rate                               : 25.000 fps\nColor space                              : YUV\nChroma subsampling                       : 4:2:0\nBit depth                                : 8 bits\nScan type                                : Progressive\nCompression mode                         : Lossy\nBits/(Pixel*Frame)                       : 0.583\nStream size                              : 98.6 MiB (89%)\nWriting library                          : Lavc55.52.102\n\nAudio\nID                                       : 1\nFormat                                   : MPEG Audio\nFormat version                           : Version 2\nFormat profile                           : Layer 3\nMode                                     : Joint stereo\nMode extension                           : MS Stereo\nCodec ID                                 : 55\nCodec ID/Hint                            : MP3\nDuration                                 : 12mn 34s\nBit rate mode                            : Constant\nBit rate                                 : 128 Kbps\nChannel(s)                               : 2 channels\nSampling rate                            : 22.05 KHz\nCompression mode                         : Lossy\nStream size                              : 11.5 MiB (10%)\nAlignment                                : Aligned on interleaves\nInterleave, duration                     : 26 ms (0.65 video frame)\nInterleave, preload duration             : 104 ms\nWriting library                          : LAME3.99.5","torrent":{"xt":"urn:btih:9d0a115d0fd491585936095d0b54cacd63716561","amp;dn":"Barbara+playboy+full","amp;tr":["udp%3A%2F%2Ftracker.openbittorrent.com%3A80","udp%3A%2F%2Fopen.demonii.com%3A1337","udp%3A%2F%2Ftracker.coppersurfer.tk%3A6969","udp%3A%2F%2Fexodus.desync.com%3A6969"],"infoHash":"9d0a115d0fd491585936095d0b54cacd63716561","infoHashBuffer":{"type":"Buffer","data":[157,10,17,93,15,212,145,88,89,54,9,93,11,84,202,205,99,113,101,97]},"announce":[],"urlList":[]}}